<?xml version="1.0" standalone="no"?>
<!DOCTYPE svg PUBLIC "-//W3C//DTD SVG 1.1//EN" "http://www.w3.org/Graphics/SVG/1.1/DTD/svg11.dtd">
<svg xmlns="http://www.w3.org/2000/svg" id="Capa_2" data-name="Capa 2" viewBox="0 0 95.21 76.31" width="95.20999908447266" height="76.30999755859375"><defs><style>      .cls-1 {        fill: #c1aa7f;      }    </style></defs><g id="Capa_1-2" data-name="Capa 1"><g><path class="cls-1" d="M55.5,76.31c17.51,0,32.26-11.79,36.75-27.86H18.75c4.49,16.07,19.24,27.86,36.75,27.86Z"/><path class="cls-1" d="M93.43,42.27c.14-1.35.22-2.72.22-4.11C93.66,17.08,76.57,0,55.5,0S17.35,17.08,17.35,38.15c0,.36,0,.72.02,1.07L0,45.6l42.32-8.37,6.48-.08c.88-.01,1.53.81,1.33,1.66l-2.3,9.51,5.47-7.76,1.68-.11c.29-.02.51-.27.49-.56-.02-.29-.27-.51-.56-.49l-.84.06,1.16-1.65c.31-.44.78-.75,1.31-.87l4.58-1c.07-.02.13-.04.19-.08l1.77-1.14c.17-.11.15-.35-.03-.43l-1.91-.89c-.06-.03-.13-.05-.2-.05l-4.67-.38c-.54-.04-1.04-.29-1.41-.69l-1.37-1.48.84-.05c.29-.02.5-.27.49-.56-.02-.29-.27-.5-.56-.49l-1.68.11-6.45-6.97,3.51,9.04c.32.82-.22,1.72-1.09,1.82l-4.85.59c-2.61-4.29-7.22-13.52-6.29-24.01h18.77s2.41,28.59,31.42,31.95c3.5.4,6.41,2.85,7.44,6.2,0,0,.93-2.88-1.61-6.18Z"/></g></g></svg>