<svg width="113" height="97" viewBox="0 0 113 97" fill="none" xmlns="http://www.w3.org/2000/svg">
<path d="M107.049 4.61865L110.765 2.5607C110.838 2.52039 110.916 2.48932 110.996 2.46821C112.131 2.17062 111.915 0.5 110.742 0.5H33.6326C32.6917 0.5 31.7574 0.617949 30.8686 0.926911C24.7651 3.04863 0.0151008 13.7415 0.507237 47.5002C0.990423 80.645 24.142 93.0372 30.5735 95.8434C31.6583 96.3168 32.819 96.5 34.0026 96.5H110.739C111.912 96.5 112.128 94.8287 110.993 94.5309C110.914 94.5104 110.839 94.4804 110.768 94.4416L107.729 92.7854C105.554 91.5999 103.538 90.1442 101.728 88.453L99.6378 86.5L95.2232 81.5L94.8934 81.0068C92.4413 77.3409 90.2709 73.4942 88.4007 69.5L86.3941 63.5L85.9824 61.4485C85.1886 57.4926 84.7888 53.4677 84.7888 49.4329C84.7888 46.4815 85.0028 43.534 85.4289 40.6135L85.7748 38.2435C86.187 35.4189 86.8214 32.6312 87.6719 29.9063L87.9233 29.1009C88.7748 26.3731 89.882 23.7318 91.2302 21.2122L91.3095 21.064C92.5782 18.6931 94.0636 16.4447 95.7468 14.3477L96.0093 14.0206C97.3558 12.3431 98.8402 10.7813 100.447 9.35129L100.75 9.08188C102.678 7.36592 104.791 5.86903 107.049 4.61865Z" fill="#C9A227" stroke="#C9A227" stroke-linecap="round"/>
</svg>
