<svg width="119" height="97" viewBox="0 0 119 97" fill="none" xmlns="http://www.w3.org/2000/svg">
<path d="M5.4797 4.61865L1.53741 2.5607C1.46019 2.52039 1.37793 2.48932 1.29255 2.46821C0.0890417 2.17062 0.317595 0.5 1.56182 0.5H83.3548C84.353 0.5 85.344 0.617948 86.2868 0.92691C92.761 3.04862 119.014 13.7415 118.492 47.5002C117.98 80.645 93.4219 93.0372 86.5999 95.8434C85.4491 96.3168 84.2179 96.5 82.9624 96.5H1.56531C0.320558 96.5 0.0919573 94.8287 1.29599 94.5309C1.37911 94.5104 1.45923 94.4804 1.53469 94.4416L4.75776 92.7854C7.06485 91.5999 9.20381 90.1442 11.1237 88.453L13.3406 86.5L18.0234 81.5L18.3733 81.0068C20.9742 77.3409 23.2765 73.4942 25.2603 69.5L27.3888 63.5L27.8254 61.4485C28.6675 57.4926 29.0915 53.4677 29.0915 49.4329C29.0915 46.4815 28.8646 43.534 28.4125 40.6135L28.0457 38.2435C27.6084 35.4189 26.9356 32.6312 26.0334 29.9063L25.7667 29.1009C24.8635 26.3731 23.689 23.7318 22.2589 21.2122L22.1748 21.064C20.8291 18.6931 19.2534 16.4447 17.468 14.3477L17.1895 14.0206C15.7613 12.3431 14.1867 10.7813 12.4823 9.35129L12.1612 9.08188C10.1158 7.36592 7.87498 5.86903 5.4797 4.61865Z" stroke="#C9A227" stroke-linecap="round"/>
</svg>
