<svg width="113" height="97" viewBox="0 0 113 97" fill="none" xmlns="http://www.w3.org/2000/svg">
<path d="M5.19504 4.61865L1.47849 2.5607C1.40569 2.52039 1.32814 2.48932 1.24765 2.46821C0.113053 2.17062 0.328519 0.5 1.5015 0.5H78.6111C79.552 0.5 80.4863 0.617948 81.3751 0.92691C87.4786 3.04862 112.229 13.7415 111.736 47.5002C111.253 80.645 88.1017 93.0372 81.6703 95.8434C80.5854 96.3168 79.4247 96.5 78.2411 96.5H1.50479C0.331312 96.5 0.115801 94.8287 1.25089 94.5309C1.32925 94.5104 1.40479 94.4804 1.47592 94.4416L4.51444 92.7854C6.68943 91.5999 8.70591 90.1442 10.5158 88.453L12.6059 86.5L17.0205 81.5L17.3503 81.0068C19.8024 77.3409 21.9728 73.4942 23.843 69.5L25.8496 63.5L26.2613 61.4485C27.0551 57.4926 27.4549 53.4677 27.4549 49.4329C27.4549 46.4815 27.2409 43.534 26.8147 40.6135L26.4689 38.2435C26.0567 35.4189 25.4224 32.6312 24.5718 29.9063L24.3204 29.1009C23.4689 26.3731 22.3617 23.7318 21.0135 21.2122L20.9342 21.064C19.6655 18.6931 18.1801 16.4447 16.4969 14.3477L16.2343 14.0206C14.8879 12.3431 13.4035 10.7813 11.7967 9.35129L11.4939 9.08188C9.5657 7.36592 7.45317 5.86903 5.19504 4.61865Z" stroke="#C9A227" stroke-linecap="round"/>
</svg>
